<?xml version="1.0" encoding="UTF-8"?>
<svg id="outputsvg" xmlns="http://www.w3.org/2000/svg" viewBox="0 0 1318.2 404.63">
  <defs>
    <style>
      .cls-1 {
        fill: #27bdfb;
      }

      .cls-1, .cls-2, .cls-3, .cls-4 {
        stroke-width: 0px;
      }

      .cls-2 {
        fill: #104eee;
      }

      .cls-3 {
        fill: #fff;
      }

      .cls-4 {
        fill: #56dffe;
      }
    </style>
  </defs>
  <g id="l1LWMZLvWVTzM0EGVe3OBUm">
    <g>
      <path id="pa7MGIEgJ" class="cls-3" d="M433.66,328.73c-36.5-9.3-55.5-37.9-55.5-83.7,0-21.2,5-44,13.4-60.6,4.2-8.3,14.1-21.5,19.3-25.8,17.9-14.5,33.9-19.7,61.3-19.7,18.1,0,26.4,1.8,39.2,8.5,13,6.7,20.7,17.5,22.9,31.7,3.4,22.6-7.3,38.8-27.7,42.1-10,1.6-22.3,1.7-23.3.2-.5-.8-1-6.9-1.3-13.5-.6-14.8-2.5-20.4-8.1-23-7.2-3.4-17-1.1-23.8,5.6-10.5,10.4-16.4,36.8-14,62.2,1.2,12.4,3.4,19.3,7.9,24.5,5.1,6.1,9.9,8.1,20.6,8.7,13.9.8,22.1-1.8,39.2-12.3,8.5-5.3,12.5-5.7,15.1-1.7,2.5,3.8,2.1,11.3-1.2,21.1-4.4,13.2-7.7,17.7-17.5,24.4-19.2,13-43.7,17.2-66.5,11.3h0Z"/>
      <path id="pasVGEFq0" class="cls-3" d="M576.26,329.13c-10.9-2.8-15.4-5.4-21.4-11.9-6.8-7.6-9.7-15.2-10.4-28-1.5-27,15.2-48.5,46-59.1,11.4-3.9,36-8.5,49.6-9.3,6.3-.4,11.8-.9,12.2-1.2,1.5-.9,1-17.7-.6-23-2.6-8.8-8.4-12.5-19.5-12.6-14.9-.1-20.8,5.8-26,25.9-1,3.8-1.5,4.4-5.2,5.3-4.7,1.3-17.9-.1-25-2.6-10.3-3.6-15.5-13.3-14.6-27.1,1.4-20.8,19.3-37.6,46.9-44,10-2.2,13.6-2.6,29.9-2.6s19.5.2,28.8,2.6c27.1,6.8,39.9,22,42.7,50.7.6,6.1.1,12.6-4.1,53.5-1.8,17.9-1.5,25.8,1.2,30.5,1.9,3.1,7.8,7,10.8,7,.8,0,2.7.5,4.1,1.2,2.1.9,2.5,1.8,2.5,5.4,0,9.8-3.8,21.1-9.6,28.1-7.4,9.1-17.5,13.3-31.6,13.3-17.2,0-28.8-8.1-32.8-22.7-.7-2.7-1.5-5-1.6-5.2-.2-.2-3.5,3.1-7.4,7.2-13.7,14.7-27.6,20.8-47.4,20.6-6.6,0-12.7-.7-17.5-2h0ZM628.66,283.73c5.3-2.6,12.6-9.9,15.3-15.5,2.4-4.9,5.2-15.1,5.2-18.8,0-2.3-.1-2.3-6.7-1.7-25.5,2.5-38.9,10.3-40,23.2-.5,6.1,1.9,11.2,6.7,13.6,4.4,2.3,13.8,1.9,19.5-.8h0Z"/>
      <path id="p11YlchOOc" class="cls-3" d="M883.16,330.53c-25.4-2.7-44.5-10-50.8-19.3-4.4-6.5-1.9-20.1,5.1-27.9,2.6-2.8,9.3-6,12.6-6.1,1.3,0,6.3,2,11,4.4,12.4,6.3,18.1,7.7,32,7.7,12.6.1,17-1,20.5-5,2.4-2.6,2.5-8.1.2-11.6-2.5-3.8-9.2-7.8-22.6-13.3-23.4-9.7-33.8-16.7-40.9-27.3-4.8-7.2-6.9-13.5-8-24.1-3-27.8,8.7-48.9,33.4-60.8,12.5-6,24.8-8.3,44-8.4,14.6,0,16.8.3,24.5,2.7,20.3,6.3,30.1,18.4,30.3,37.2.1,19.1-11.6,29.7-33,29.9-5,0-9.5-.2-9.8-.6-.4-.3-1.1-3.9-1.6-7.9-1.6-12.8-7.5-18.3-19.6-18.2-11.2.1-20.3,6.8-20.3,15,0,9.2,6.8,14.9,27.2,22.8,6.8,2.6,16.8,7.1,22.3,9.9,20.8,10.7,30.5,25.5,30.5,46.9,0,34.5-26.9,55.1-71.3,54.5-6.7,0-13.8-.3-15.7-.5h0Z"/>
      <path id="pU0ePlpZT" class="cls-3" d="M1042.16,330.53c-24-2.6-43.2-9.5-49.6-17.8-8.9-11.8,2.2-35.4,16.8-35.5,1.4,0,6.4,2,11,4.4,11.3,6,18.7,7.8,32.5,7.8,12.5,0,17-1.4,20.7-6.4,1.7-2.4,1.8-3.2.7-6.7-1.7-5.7-7.5-10.2-19.5-15.1-21.5-8.9-30.2-13.7-37.4-20.5-11.6-10.9-16.2-22.4-16.2-40.6,0-24.9,11.2-42.3,34.4-53.3,11.8-5.7,24.3-7.9,43.6-8,15.4,0,17,.2,24.7,2.8,16.1,5.4,25.5,14.2,28.8,27.1,5.3,20.7-4.4,36.1-25.1,39.6-4.6.8-8.5.9-11.8.3l-5-.9-1.3-7.9c-2.2-13.2-7.4-17.9-19.5-17.8-12.8,0-20.3,6-20.2,15.9,0,4.6.4,5.8,3.5,8.9,3.9,4.1,10.5,7.7,25,13.4,21.2,8.5,31.7,14.6,39.4,23.2,6.1,6.7,9.3,13.7,11.1,24.1,1.6,9.2,1.2,15.8-1.8,25.7-7.4,24.4-32.6,38.3-68.5,37.8-7,0-14.4-.3-16.3-.5h0Z"/>
      <path id="pKgpjYQJR" class="cls-3" d="M1216.66,329.73c-11.5-2.1-15.6-3.5-24.8-8.2-18.8-9.7-30.6-25.5-35.3-47.2-6-27.6.7-67.6,15.3-91.6,15.3-25.2,40.7-40.8,70.8-43.6,32.6-3,58.1,5.4,68.4,22.5,8.6,14.4,9.6,36.8,2.1,51.6-9.1,18.2-29.4,31-59.5,37.5-5.6,1.2-34.5,4.4-40.3,4.5-1,0-1.2,1.1-.6,4.8,2.5,17.6,13.1,27.9,29.8,29,11.3.7,16.3-1.4,25.1-10.4,6.2-6.5,7.5-7.4,10.7-7.4,8.2,0,18,5.5,21.9,12.3,3.1,5.4,3.4,17.3.6,22.5-6.3,11.6-19.3,18.9-42,23.8-8.4,1.7-32.3,1.7-42.2-.1h0ZM1233.06,225.63c18.8-4.7,27.1-12.5,27.1-25.2,0-9.6-5.4-15.7-14.8-16.9-9.4-1.1-18.6,4.8-24,15.4-2.5,4.9-6,16.2-7.1,23.1l-.8,5.2h6.5c3.6,0,9.5-.7,13.1-1.6h0Z"/>
      <path id="ph9Ahxp0P" class="cls-3" d="M770.66,327.23c-12.7-1.7-17.8-4.9-22.2-13.7-2.7-5.6-2.8-6.2-2.7-21.3.1-13.5,1.3-31.7,5.4-82.5.5-6.6,1.7-21.7,2.5-33.5,1.53-22.07,3.37-33.47,5.5-34.2.8-.3,8.3-.2,16.5.1,13.2.6,15.7,1,20.7,3.3,11.3,5.2,14.6,14.2,13.5,37.2-.7,13-1.8,29-3.6,52.1-.6,6.6-1.5,18.1-2.1,25.5s-1.5,18.9-2.1,25.5c-.5,6.6-1.4,18-1.9,25.4-.7,9.8-1.3,13.9-2.5,15-1.8,1.8-17.3,2.4-27,1.1h0Z"/>
      <path id="pPvhoxmj6" class="cls-3" d="M770.16,121.53c-10.1-3.5-13.9-9.1-14-20.4,0-11.6,5.7-19.6,18-25.1,6.6-3,23.8-3.7,31-1.3,10.9,3.6,16.2,13,14,24.7-2.1,10.8-10.5,19.1-22.6,22.2-7.8,2-20.5,2-26.4-.1Z"/>
    </g>
  </g>
  <g id="l7FCE22olkbHsB0X4Yno03C">
    <path id="p7meYi22f" class="cls-2" d="M38.56,400.8c-13.6-12.4-20.7-21.5-27.3-34.5-3.8-7.6-4.1-8.9-4.1-16,0-12.2,3.7-26.9,9.7-38.6,9.6-19.1,28.5-35.9,54.8-48.7,5.5-2.7,23.5-10.4,40-17,43.4-17.6,59.1-25.8,74.2-38.8,13.3-11.4,22.9-27.1,27.5-44.7,2.3-8.8,2.3-9.8,2.3-58.5,0-32.4.3-49.8,1-50.2,1.7-1.3,2.5-.9,2.5,1.1,0,1.6,1.9,1.1,16.3-4.4,45-17.4,71.6-30,92.7-44.1L337.66,0l.3,89.3c.1,54.9-.2,91.2-.8,94.5-2.4,12.9-10.5,25.9-23.4,37.3-11,9.9-20.2,15.7-39.1,24.9-21.8,10.7-30.8,14.2-76,29.2-60.4,20.1-84.9,29.6-104.2,40.2-30.3,16.6-43.8,30.4-50.8,51.6-2.3,6.8-2.6,24-.6,31.8.7,2.9,1.1,5.5.8,5.8s-2.7-1.4-5.3-3.8Z"/>
  </g>
  <g id="l3RVDxZvyfQFWPK0Qu4wZe3">
    <path id="p1HSoy9i14" class="cls-1" d="M6.26,350.3c-5.7-15.3-5.4-10.5-6-94.7-.6-77.2-.2-96.6,1.8-97.3.6-.2,1.1-1,1.1-1.8s.5-1.4,1-1.4c.6,0,1-.6,1-1.3s.9-1.8,2-2.5,2-1.6,2-2c0-1.1,14.8-15.9,16.6-16.6.8-.3,1.4-1,1.4-1.6,0-.5.7-1,1.5-1,.9,0,1.8-.7,2.1-1.5.4-.8,1.2-1.5,2-1.5s1.4-.4,1.4-1c0-.5.7-1,1.5-1s1.5-.4,1.5-1c0-.5.7-1,1.5-1s1.5-.4,1.5-1c0-.5.7-1,1.5-1s1.5-.4,1.5-1c0-.5.9-1,2-1s2.3-.7,2.6-1.5,2.1-1.9,4-2.5,3.4-1.5,3.4-1.9c0-.5,3.4-2.3,7.5-4.1s7.5-3.7,7.5-4.1c0-.5.7-.9,1.5-.9s3.6-1.1,6.2-2.4c9.5-4.7,13.8-6.6,15.3-6.6.8,0,2.6-.9,4-2s3.1-2,3.8-2,2-.4,3-.9c1.6-.8,3.7-1.7,9.5-4,1.2-.5,3.8-1.6,5.9-2.5,2-.9,4.3-1.6,5.1-1.6.9,0,1.8-.4,2.1-.9.4-.5,2.4-1.2,4.6-1.6s4-1.1,4-1.6.8-.9,1.8-.9c.9,0,3-.7,4.5-1.5s4.3-1.7,6.2-2.1c1.9-.3,3.5-1,3.5-1.4,0-.5,1.5-1.2,3.3-1.5,1.7-.4,3.7-1.1,4.2-1.5.6-.4,2.8-1.3,5-2,2.2-.6,5.9-2,8.2-3.1,2.4-1,4.5-1.9,4.8-1.9s8.5-2.9,18.1-6.5c9.7-3.6,19-6.5,20.9-6.5h3.2l-.1,51.8c-.2,50.6-.2,51.9-2.5,60.2-4.7,17.4-14.3,32.9-27.4,44.2-15.1,13-30.8,21.2-74.2,38.8-16.5,6.6-34.5,14.3-40,17-26.3,12.8-45.2,29.6-54.8,48.7-5.9,11.5-9.7,26.4-9.7,38,0,3.9-.4,7.4-.9,7.7s-1.8-2-3-5.2Z"/>
  </g>
  <g id="l4lTYx0wmA49Zr6Aowhon9z">
    <path id="p1YjDx3xs" class="cls-4" d="M.26,295.75c-.1-5.6,3.1-21.6,6.4-31.7,9.8-29.9,29.3-54.2,60.5-75.4,16.3-11.1,27.7-17.4,68.5-38.1,38.3-19.4,64.1-33.5,74.2-40.6,3.4-2.4,6.8-4.4,7.5-4.4,1,0,1.3,7,1.3,36.8,0,33.4-.1,36.7-1.6,36.4-.9-.1-9.6,2.7-19.2,6.3-9.7,3.6-17.9,6.5-18.2,6.5s-2.4.9-4.8,1.9c-2.3,1.1-6,2.5-8.2,3.1-2.2.7-4.4,1.6-5,2-.5.4-2.5,1.1-4.2,1.5-1.8.3-3.3,1-3.3,1.5,0,.4-1.6,1.1-3.5,1.4-1.9.4-4.7,1.3-6.2,2.1s-3.6,1.5-4.5,1.5c-1,0-1.8.4-1.8.9s-1.8,1.2-4,1.6-4.2,1.1-4.6,1.6c-.3.5-1.2.9-2.1.9-.8,0-3.1.7-5.1,1.6-4.1,1.8-7.5,3.2-11.2,4.7-1.4.5-3.3,1.3-4.2,1.8-1,.5-2.3.9-3,.9s-2.4.9-3.8,2-3.2,2-4,2c-1.5,0-5.8,1.9-15.3,6.6-2.6,1.3-5.4,2.4-6.2,2.4s-1.5.4-1.5.9c0,.4-3.4,2.3-7.5,4.1s-7.5,3.6-7.5,4.1c0,.4-1.5,1.3-3.4,1.9s-3.7,1.7-4,2.5-1.5,1.5-2.6,1.5-2,.5-2,1c0,.6-.7,1-1.5,1s-1.5.5-1.5,1c0,.6-.7,1-1.5,1s-1.5.5-1.5,1c0,.6-.7,1-1.5,1s-1.5.5-1.5,1c0,.6-.6,1-1.4,1s-1.6.7-2,1.5c-.3.8-1.2,1.5-2,1.5-.7,0-1.6.7-2,1.5-.3.8-.9,1.5-1.4,1.5-1,0-16,14.9-15.5,15.4.2.2-.7,1.3-2.1,2.4-1.4,1-2.3,2.2-1.9,2.5.3.4-.2.9-1.1,1.3-.9.3-1.3,1-1,1.5s-.2,1.2-1,1.5c-.9.3-1.3,1-1,1.5s0,.9-.5.9c-.6,0-1,.3-.9.8,0,.4-.1,1.4-.5,2.2-.3.8-1,2.9-1.5,4.5-.67,1.93-1.03,1.5-1.1-1.3h0Z"/>
  </g>
</svg>